<svg xmlns="http://www.w3.org/2000/svg" width="1440" height="920" viewBox="0 0 1440 920">
  <rect width="1440" height="920" fill="#f7f8fa"/>
  <rect x="0" y="0" width="1440" height="64" fill="#ffffff"/>
  <text x="32" y="40" font-family="Inter, Arial, sans-serif" font-size="22" font-weight="700" fill="#1f2937">Bank Rec</text>
  <rect x="184" y="18" width="96" height="32" rx="6" fill="#edf2ff"/>
  <text x="208" y="39" font-family="Inter, Arial, sans-serif" font-size="13" fill="#1f4ed8">Reconcile</text>
  <text x="310" y="39" font-family="Inter, Arial, sans-serif" font-size="13" fill="#4b5563">Cash Coding</text>
  <text x="430" y="39" font-family="Inter, Arial, sans-serif" font-size="13" fill="#4b5563">Matched</text>
  <text x="520" y="39" font-family="Inter, Arial, sans-serif" font-size="13" fill="#4b5563">Rules</text>
  <rect x="32" y="88" width="1376" height="76" rx="8" fill="#ffffff" stroke="#e5e7eb"/>
  <text x="56" y="118" font-family="Inter, Arial, sans-serif" font-size="12" fill="#6b7280">Company</text>
  <rect x="56" y="126" width="220" height="28" rx="6" fill="#f9fafb" stroke="#d1d5db"/>
  <text x="68" y="145" font-family="Inter, Arial, sans-serif" font-size="12" fill="#111827">Demo Company</text>
  <text x="304" y="118" font-family="Inter, Arial, sans-serif" font-size="12" fill="#6b7280">Bank Account</text>
  <rect x="304" y="126" width="260" height="28" rx="6" fill="#f9fafb" stroke="#d1d5db"/>
  <text x="316" y="145" font-family="Inter, Arial, sans-serif" font-size="12" fill="#111827">Main Operating Account</text>
  <text x="592" y="118" font-family="Inter, Arial, sans-serif" font-size="12" fill="#6b7280">Date Range</text>
  <rect x="592" y="126" width="220" height="28" rx="6" fill="#f9fafb" stroke="#d1d5db"/>
  <text x="604" y="145" font-family="Inter, Arial, sans-serif" font-size="12" fill="#111827">01 Jun 2026 to 30 Jun 2026</text>
  <rect x="1214" y="118" width="170" height="36" rx="6" fill="#2563eb"/>
  <text x="1248" y="141" font-family="Inter, Arial, sans-serif" font-size="13" font-weight="600" fill="#ffffff">Refresh</text>
  <rect x="32" y="184" width="1376" height="70" rx="8" fill="#ffffff" stroke="#e5e7eb"/>
  <text x="56" y="212" font-family="Inter, Arial, sans-serif" font-size="12" fill="#6b7280">Unreconciled</text>
  <text x="56" y="238" font-family="Inter, Arial, sans-serif" font-size="24" font-weight="700" fill="#111827">38</text>
  <text x="248" y="212" font-family="Inter, Arial, sans-serif" font-size="12" fill="#6b7280">Selected Amount</text>
  <text x="248" y="238" font-family="Inter, Arial, sans-serif" font-size="24" font-weight="700" fill="#111827">$1,200.00</text>
  <text x="512" y="212" font-family="Inter, Arial, sans-serif" font-size="12" fill="#6b7280">Cleared Balance</text>
  <text x="512" y="238" font-family="Inter, Arial, sans-serif" font-size="24" font-weight="700" fill="#047857">$48,500.00</text>
  <text x="792" y="212" font-family="Inter, Arial, sans-serif" font-size="12" fill="#6b7280">Unreconciled Total</text>
  <text x="792" y="238" font-family="Inter, Arial, sans-serif" font-size="24" font-weight="700" fill="#111827">$4,825.00</text>
  <rect x="32" y="278" width="526" height="590" rx="8" fill="#ffffff" stroke="#e5e7eb"/>
  <text x="56" y="312" font-family="Inter, Arial, sans-serif" font-size="16" font-weight="700" fill="#111827">Bank Transactions</text>
  <rect x="56" y="330" width="478" height="34" rx="6" fill="#f9fafb" stroke="#d1d5db"/>
  <text x="70" y="352" font-family="Inter, Arial, sans-serif" font-size="12" fill="#6b7280">Search description, reference, party</text>
  <rect x="56" y="388" width="478" height="78" rx="8" fill="#eff6ff" stroke="#93c5fd"/>
  <text x="76" y="416" font-family="Inter, Arial, sans-serif" font-size="13" font-weight="700" fill="#111827">20 Jun 2026</text>
  <text x="76" y="440" font-family="Inter, Arial, sans-serif" font-size="12" fill="#374151">Statement description with reference REF-001</text>
  <text x="420" y="426" font-family="Inter, Arial, sans-serif" font-size="15" font-weight="700" text-anchor="end" fill="#047857">$1,200.00</text>
  <text x="420" y="448" font-family="Inter, Arial, sans-serif" font-size="11" text-anchor="end" fill="#6b7280">Money In</text>
  <rect x="56" y="478" width="478" height="78" rx="8" fill="#ffffff" stroke="#e5e7eb"/>
  <text x="76" y="506" font-family="Inter, Arial, sans-serif" font-size="13" font-weight="700" fill="#111827">19 Jun 2026</text>
  <text x="76" y="530" font-family="Inter, Arial, sans-serif" font-size="12" fill="#374151">Insurance premium</text>
  <text x="420" y="516" font-family="Inter, Arial, sans-serif" font-size="15" font-weight="700" text-anchor="end" fill="#b91c1c">$450.00</text>
  <text x="420" y="538" font-family="Inter, Arial, sans-serif" font-size="11" text-anchor="end" fill="#6b7280">Money Out</text>
  <rect x="56" y="568" width="478" height="78" rx="8" fill="#ffffff" stroke="#e5e7eb"/>
  <text x="76" y="596" font-family="Inter, Arial, sans-serif" font-size="13" font-weight="700" fill="#111827">18 Jun 2026</text>
  <text x="76" y="620" font-family="Inter, Arial, sans-serif" font-size="12" fill="#374151">Monthly service fee</text>
  <text x="420" y="606" font-family="Inter, Arial, sans-serif" font-size="15" font-weight="700" text-anchor="end" fill="#b91c1c">$75.00</text>
  <text x="420" y="628" font-family="Inter, Arial, sans-serif" font-size="11" text-anchor="end" fill="#6b7280">Money Out</text>
  <rect x="582" y="278" width="826" height="590" rx="8" fill="#ffffff" stroke="#e5e7eb"/>
  <text x="612" y="314" font-family="Inter, Arial, sans-serif" font-size="18" font-weight="700" fill="#111827">Statement description with reference REF-001</text>
  <text x="612" y="340" font-family="Inter, Arial, sans-serif" font-size="12" fill="#6b7280">20 Jun 2026  |  Main Operating Account  |  Deposit $1,200.00</text>
  <rect x="612" y="366" width="96" height="32" rx="6" fill="#2563eb"/>
  <text x="642" y="387" font-family="Inter, Arial, sans-serif" font-size="13" font-weight="600" fill="#ffffff">Match</text>
  <rect x="718" y="366" width="96" height="32" rx="6" fill="#f3f4f6"/>
  <text x="748" y="387" font-family="Inter, Arial, sans-serif" font-size="13" fill="#374151">Create</text>
  <rect x="824" y="366" width="96" height="32" rx="6" fill="#f3f4f6"/>
  <text x="854" y="387" font-family="Inter, Arial, sans-serif" font-size="13" fill="#374151">Update</text>
  <text x="612" y="430" font-family="Inter, Arial, sans-serif" font-size="14" font-weight="700" fill="#111827">Suggested matches</text>
  <rect x="612" y="448" width="748" height="86" rx="8" fill="#f9fafb" stroke="#d1d5db"/>
  <rect x="632" y="470" width="18" height="18" rx="4" fill="#2563eb"/>
  <text x="670" y="478" font-family="Inter, Arial, sans-serif" font-size="13" font-weight="700" fill="#111827">Payment Entry ACC-PAY-0001</text>
  <text x="670" y="502" font-family="Inter, Arial, sans-serif" font-size="12" fill="#6b7280">Reference, amount, and party match</text>
  <text x="1268" y="480" font-family="Inter, Arial, sans-serif" font-size="15" font-weight="700" text-anchor="end" fill="#111827">$1,200.00</text>
  <rect x="1284" y="466" width="56" height="24" rx="12" fill="#dcfce7"/>
  <text x="1312" y="482" font-family="Inter, Arial, sans-serif" font-size="11" font-weight="700" text-anchor="middle" fill="#166534">95%</text>
  <rect x="612" y="548" width="748" height="86" rx="8" fill="#ffffff" stroke="#e5e7eb"/>
  <rect x="632" y="570" width="18" height="18" rx="4" fill="#ffffff" stroke="#9ca3af"/>
  <text x="670" y="578" font-family="Inter, Arial, sans-serif" font-size="13" font-weight="700" fill="#111827">Sales Invoice INV-0001</text>
  <text x="670" y="602" font-family="Inter, Arial, sans-serif" font-size="12" fill="#6b7280">Amount match only</text>
  <text x="1268" y="580" font-family="Inter, Arial, sans-serif" font-size="15" font-weight="700" text-anchor="end" fill="#111827">$1,200.00</text>
  <rect x="1284" y="566" width="56" height="24" rx="12" fill="#fef3c7"/>
  <text x="1312" y="582" font-family="Inter, Arial, sans-serif" font-size="11" font-weight="700" text-anchor="middle" fill="#92400e">60%</text>
  <rect x="612" y="730" width="748" height="64" rx="8" fill="#f9fafb" stroke="#d1d5db"/>
  <text x="636" y="766" font-family="Inter, Arial, sans-serif" font-size="14" font-weight="700" fill="#111827">Selected total: $1,200.00</text>
  <rect x="1188" y="744" width="148" height="36" rx="6" fill="#2563eb"/>
  <text x="1218" y="767" font-family="Inter, Arial, sans-serif" font-size="13" font-weight="600" fill="#ffffff">Reconcile</text>
</svg>
